<svg width="17" height="18" viewBox="0 0 17 18" fill="none" xmlns="http://www.w3.org/2000/svg">
<circle cx="8.5" cy="9.06372" r="8.5" fill="white"/>
<path d="M8.22501 12.597C10.0872 12.597 11.5969 11.0874 11.5969 9.22513C11.5969 7.36291 10.0872 5.85327 8.22501 5.85327C6.36278 5.85327 4.85315 7.36291 4.85315 9.22513C4.85315 11.0874 6.36278 12.597 8.22501 12.597Z" stroke="#155DA4" stroke-linecap="round" stroke-linejoin="round"/>
<path d="M11.9288 12.9287L11.8614 12.8613M11.8614 5.58841L11.9288 5.52097L11.8614 5.58841ZM4.52109 12.9287L4.58853 12.8613L4.52109 12.9287ZM8.22495 4.07885V4.03735V4.07885ZM8.22495 14.4123V14.3708V14.4123ZM3.07898 9.22483H3.03748H3.07898ZM13.4124 9.22483H13.3709H13.4124ZM4.58853 5.58841L4.52109 5.52097L4.58853 5.58841Z" stroke="#155DA4" stroke-linecap="round" stroke-linejoin="round"/>
</svg>
